<svg width="330" height="334" viewBox="0 0 330 334" fill="none" xmlns="http://www.w3.org/2000/svg">
<g style="mix-blend-mode:color-dodge" filter="url(#filter0_f_191_3001)">
<circle cx="164.781" cy="173.994" r="129.106" transform="rotate(90.0499 164.781 173.994)" stroke="url(#paint0_linear_191_3001)" stroke-width="12"/>
</g>
<circle cx="164.781" cy="173.994" r="128.106" transform="rotate(90.0499 164.781 173.994)" stroke="url(#paint1_linear_191_3001)" stroke-width="2"/>
<circle cx="165" cy="49" r="41" fill="#077368"/>
<g filter="url(#filter1_d_191_3001)">
<circle cx="165" cy="49" r="41" fill="#077368"/>
<g clip-path="url(#clip0_191_3001)">
<path d="M153.311 66.6484H151.545V33.4199H164.913C167.141 33.4199 169.194 33.8973 171.071 34.8522C172.981 35.807 174.493 37.1597 175.607 38.9103C176.721 40.6608 177.278 42.6819 177.278 44.9735C177.278 47.1696 176.705 49.1907 175.559 51.0368C174.445 52.8828 172.917 54.2991 170.976 55.2858C169.289 56.1451 167.268 56.5748 164.913 56.5748H153.311V66.6484ZM153.311 54.8084H164.913C166.95 54.8084 168.621 54.4901 169.926 53.8535C171.612 53.0578 172.965 51.8643 173.984 50.2729C175.002 48.6814 175.511 46.915 175.511 44.9735C175.511 43.0638 175.002 41.3133 173.984 39.7219C172.965 38.1305 171.597 36.9369 169.878 36.1412C168.573 35.5047 166.918 35.1864 164.913 35.1864H153.311V54.8084Z" fill="white"/>
<path d="M180.537 33.4844H182.199V38.9982H180.537V33.4844Z" fill="white" stroke="white" stroke-width="0.195892"/>
</g>
</g>
<g filter="url(#filter2_d_191_3001)">
<circle cx="51" cy="232" r="41" fill="#F25041"/>
<g clip-path="url(#clip1_191_3001)">
<path d="M39.1234 221.754L50.1402 248.662L61.1568 221.754H62.7721L50.9271 250.7H49.3118L37.4668 221.754H39.1234Z" fill="white"/>
<path fill-rule="evenodd" clip-rule="evenodd" d="M60.7751 213.353L56.7142 211.266V212.625H39.4072V214.081H56.7142V215.441L60.7751 213.353Z" fill="white"/>
</g>
</g>
<g style="mix-blend-mode:lighten">
<mask id="path-10-inside-1_191_3001" fill="white">
<path d="M197.882 173.253C197.684 172.665 197.26 172.181 196.705 171.905C196.149 171.63 195.507 171.586 194.919 171.784L167.337 181.082V165.453L181.06 160.874L181.116 160.853C181.162 160.837 181.206 160.82 181.247 160.801L181.34 160.758C181.378 160.741 181.415 160.723 181.45 160.702L181.554 160.642L181.641 160.584L181.755 160.501L181.823 160.447C181.862 160.414 181.9 160.379 181.937 160.343L181.974 160.31L181.993 160.288C182.028 160.252 182.061 160.215 182.094 160.178L182.152 160.109C182.179 160.076 182.202 160.041 182.227 160.008C182.252 159.975 182.271 159.948 182.289 159.917C182.308 159.886 182.324 159.859 182.341 159.83C182.358 159.801 182.385 159.755 182.405 159.716L182.443 159.637C182.461 159.596 182.48 159.554 182.496 159.51C182.513 159.467 182.517 159.45 182.528 159.421C182.538 159.392 182.557 159.341 182.569 159.301C182.581 159.262 182.588 159.225 182.596 159.187C182.604 159.15 182.613 159.119 182.619 159.086C182.625 159.053 182.633 158.993 182.639 158.947C182.646 158.901 182.639 158.893 182.639 158.866C182.639 158.839 182.639 158.767 182.639 158.717C182.639 158.667 182.639 158.665 182.639 158.64C182.639 158.615 182.639 158.547 182.639 158.501C182.639 158.456 182.639 158.439 182.639 158.41C182.639 158.381 182.639 158.332 182.623 158.294C182.606 158.257 182.61 158.215 182.602 158.176C182.594 158.137 182.588 158.114 182.581 158.083C182.575 158.052 182.557 157.99 182.542 157.944C182.541 157.934 182.541 157.925 182.542 157.915L182.521 157.865C182.505 157.818 182.488 157.772 182.467 157.724L182.43 157.644L182.368 157.521L182.312 157.428L182.248 157.331C182.225 157.295 182.2 157.262 182.173 157.229C182.154 157.201 182.134 157.175 182.111 157.15C182.082 157.115 182.049 157.08 182.018 157.047L181.976 157.001L166.655 141.68C166.601 141.628 166.543 141.576 166.485 141.528C166.427 141.481 166.431 141.487 166.404 141.466C166.377 141.446 166.336 141.414 166.301 141.392L166.201 141.332L166.104 141.274C166.071 141.255 166.037 141.24 166.002 141.224L165.897 141.176C165.863 141.162 165.83 141.151 165.797 141.139L165.681 141.097L165.582 141.073L165.459 141.044C165.422 141.044 165.385 141.031 165.347 141.025C165.31 141.019 165.271 141.012 165.231 141.01C165.167 141.003 165.102 140.999 165.037 141H164.968C164.903 140.999 164.838 141.003 164.773 141.01C164.734 141.01 164.697 141.01 164.657 141.025C164.618 141.039 164.583 141.035 164.546 141.044L164.423 141.073L164.324 141.097L164.208 141.139C164.175 141.151 164.141 141.162 164.108 141.176C164.075 141.191 164.038 141.207 164.003 141.224C163.967 141.24 163.934 141.255 163.901 141.274L163.804 141.332L163.704 141.392C163.669 141.414 163.636 141.441 163.601 141.466C163.565 141.491 163.547 141.506 163.52 141.528C163.493 141.551 163.404 141.628 163.35 141.68C163.296 141.734 163.246 141.792 163.199 141.85C163.151 141.908 163.157 141.906 163.136 141.933C163.116 141.959 163.085 141.999 163.062 142.034C163.039 142.069 163.02 142.1 163 142.136C162.979 142.171 162.96 142.198 162.944 142.231C162.927 142.264 162.911 142.299 162.894 142.335C162.877 142.37 162.861 142.403 162.846 142.438C162.832 142.473 162.819 142.507 162.807 142.542L162.768 142.654C162.768 142.689 162.751 142.724 162.741 142.759C162.73 142.795 162.72 142.836 162.714 142.875C162.708 142.915 162.699 142.956 162.695 142.996C162.691 143.035 162.683 143.066 162.679 143.101C162.679 143.176 162.668 143.25 162.668 143.325V162.082L133.598 171.782C133.307 171.879 133.037 172.033 132.805 172.234C132.573 172.435 132.383 172.68 132.246 172.955C132.109 173.23 132.027 173.529 132.006 173.835C131.984 174.142 132.023 174.449 132.121 174.741C132.276 175.206 132.573 175.612 132.971 175.899C133.369 176.186 133.847 176.34 134.338 176.341C134.585 176.341 134.83 176.303 135.065 176.229L162.654 167.022V182.652L149.04 187.24L149 187.257L148.847 187.317L148.779 187.35C148.733 187.371 148.687 187.393 148.644 187.418L148.565 187.466L148.453 187.536L148.364 187.603L148.275 187.675L148.182 187.758L148.132 187.804L148.105 187.835C148.076 187.864 148.051 187.893 148.024 187.924C147.997 187.955 147.973 187.984 147.948 188.015L147.892 188.092C147.863 188.129 147.836 188.168 147.811 188.206L147.776 188.268C147.749 188.313 147.722 188.359 147.699 188.407C147.69 188.424 147.681 188.442 147.674 188.46C147.649 188.51 147.627 188.56 147.608 188.612L147.585 188.674C147.569 188.722 147.552 188.771 147.537 188.821C147.523 188.871 147.523 188.879 147.517 188.906C147.511 188.933 147.496 188.993 147.488 189.037C147.48 189.073 147.474 189.109 147.471 189.146C147.471 189.184 147.471 189.219 147.457 189.254C147.442 189.289 147.457 189.339 147.457 189.381C147.457 189.422 147.457 189.447 147.457 189.48V189.604C147.457 189.64 147.457 189.675 147.457 189.71C147.457 189.745 147.457 189.783 147.473 189.818C147.49 189.853 147.486 189.901 147.494 189.942C147.502 189.984 147.508 190.002 147.517 190.031C147.525 190.06 147.542 190.126 147.556 190.174C147.555 190.184 147.555 190.195 147.556 190.205L147.581 190.269C147.593 190.301 147.604 190.334 147.618 190.365C147.633 190.396 147.656 190.45 147.676 190.491C147.697 190.533 147.695 190.533 147.705 190.551C147.738 190.613 147.774 190.674 147.811 190.732L147.84 190.773C147.872 190.821 147.907 190.867 147.944 190.912L147.975 190.953C148.016 191.003 148.06 191.051 148.105 191.096L148.118 191.111L148.136 191.129L148.149 191.14L163.323 206.316C163.377 206.37 163.435 206.42 163.493 206.47L163.576 206.53C163.608 206.556 163.642 206.581 163.677 206.604L163.777 206.666C163.81 206.685 163.841 206.706 163.874 206.722C163.907 206.739 163.943 206.758 163.978 206.774L164.081 206.822L164.185 206.859L164.297 206.898L164.401 206.925L164.519 206.954L164.641 206.973L164.744 206.988C164.821 206.996 164.898 207 164.974 207C165.052 207 165.129 206.996 165.207 206.988L165.31 206.973L165.432 206.954L165.551 206.925L165.654 206.898L165.766 206.859L165.87 206.822L165.973 206.774C166.008 206.758 166.044 206.741 166.077 206.722C166.11 206.704 166.141 206.685 166.174 206.666L166.274 206.604C166.309 206.581 166.343 206.556 166.375 206.53L166.458 206.47C166.516 206.42 166.574 206.37 166.628 206.316C166.68 206.262 166.732 206.206 166.779 206.146C166.802 206.119 166.821 206.092 166.841 206.063C166.862 206.034 166.893 205.997 166.916 205.962C166.939 205.927 166.958 205.895 166.978 205.862C166.999 205.829 167.018 205.798 167.034 205.767C167.051 205.736 167.067 205.697 167.084 205.661C167.1 205.626 167.117 205.593 167.132 205.56C167.146 205.527 167.159 205.489 167.171 205.456C167.183 205.423 167.198 205.382 167.21 205.342C167.223 205.303 167.227 205.274 167.237 205.239C167.248 205.203 167.258 205.16 167.264 205.121C167.272 205.081 167.279 205.041 167.283 205C167.283 204.965 167.295 204.93 167.299 204.895C167.299 204.82 167.299 204.748 167.299 204.673V186.013L196.376 176.212C196.67 176.118 196.942 175.966 197.177 175.766C197.412 175.566 197.606 175.322 197.746 175.047C197.886 174.771 197.97 174.471 197.993 174.163C198.017 173.856 197.979 173.546 197.882 173.253ZM167.337 148.98L175.992 157.633L167.337 160.522V148.98ZM162.66 199.022L154.114 190.477L162.66 187.594V199.022Z"/>
</mask>
<path d="M197.882 173.253C197.684 172.665 197.26 172.181 196.705 171.905C196.149 171.63 195.507 171.586 194.919 171.784L167.337 181.082V165.453L181.06 160.874L181.116 160.853C181.162 160.837 181.206 160.82 181.247 160.801L181.34 160.758C181.378 160.741 181.415 160.723 181.45 160.702L181.554 160.642L181.641 160.584L181.755 160.501L181.823 160.447C181.862 160.414 181.9 160.379 181.937 160.343L181.974 160.31L181.993 160.288C182.028 160.252 182.061 160.215 182.094 160.178L182.152 160.109C182.179 160.076 182.202 160.041 182.227 160.008C182.252 159.975 182.271 159.948 182.289 159.917C182.308 159.886 182.324 159.859 182.341 159.83C182.358 159.801 182.385 159.755 182.405 159.716L182.443 159.637C182.461 159.596 182.48 159.554 182.496 159.51C182.513 159.467 182.517 159.45 182.528 159.421C182.538 159.392 182.557 159.341 182.569 159.301C182.581 159.262 182.588 159.225 182.596 159.187C182.604 159.15 182.613 159.119 182.619 159.086C182.625 159.053 182.633 158.993 182.639 158.947C182.646 158.901 182.639 158.893 182.639 158.866C182.639 158.839 182.639 158.767 182.639 158.717C182.639 158.667 182.639 158.665 182.639 158.64C182.639 158.615 182.639 158.547 182.639 158.501C182.639 158.456 182.639 158.439 182.639 158.41C182.639 158.381 182.639 158.332 182.623 158.294C182.606 158.257 182.61 158.215 182.602 158.176C182.594 158.137 182.588 158.114 182.581 158.083C182.575 158.052 182.557 157.99 182.542 157.944C182.541 157.934 182.541 157.925 182.542 157.915L182.521 157.865C182.505 157.818 182.488 157.772 182.467 157.724L182.43 157.644L182.368 157.521L182.312 157.428L182.248 157.331C182.225 157.295 182.2 157.262 182.173 157.229C182.154 157.201 182.134 157.175 182.111 157.15C182.082 157.115 182.049 157.08 182.018 157.047L181.976 157.001L166.655 141.68C166.601 141.628 166.543 141.576 166.485 141.528C166.427 141.481 166.431 141.487 166.404 141.466C166.377 141.446 166.336 141.414 166.301 141.392L166.201 141.332L166.104 141.274C166.071 141.255 166.037 141.24 166.002 141.224L165.897 141.176C165.863 141.162 165.83 141.151 165.797 141.139L165.681 141.097L165.582 141.073L165.459 141.044C165.422 141.044 165.385 141.031 165.347 141.025C165.31 141.019 165.271 141.012 165.231 141.01C165.167 141.003 165.102 140.999 165.037 141H164.968C164.903 140.999 164.838 141.003 164.773 141.01C164.734 141.01 164.697 141.01 164.657 141.025C164.618 141.039 164.583 141.035 164.546 141.044L164.423 141.073L164.324 141.097L164.208 141.139C164.175 141.151 164.141 141.162 164.108 141.176C164.075 141.191 164.038 141.207 164.003 141.224C163.967 141.24 163.934 141.255 163.901 141.274L163.804 141.332L163.704 141.392C163.669 141.414 163.636 141.441 163.601 141.466C163.565 141.491 163.547 141.506 163.52 141.528C163.493 141.551 163.404 141.628 163.35 141.68C163.296 141.734 163.246 141.792 163.199 141.85C163.151 141.908 163.157 141.906 163.136 141.933C163.116 141.959 163.085 141.999 163.062 142.034C163.039 142.069 163.02 142.1 163 142.136C162.979 142.171 162.96 142.198 162.944 142.231C162.927 142.264 162.911 142.299 162.894 142.335C162.877 142.37 162.861 142.403 162.846 142.438C162.832 142.473 162.819 142.507 162.807 142.542L162.768 142.654C162.768 142.689 162.751 142.724 162.741 142.759C162.73 142.795 162.72 142.836 162.714 142.875C162.708 142.915 162.699 142.956 162.695 142.996C162.691 143.035 162.683 143.066 162.679 143.101C162.679 143.176 162.668 143.25 162.668 143.325V162.082L133.598 171.782C133.307 171.879 133.037 172.033 132.805 172.234C132.573 172.435 132.383 172.68 132.246 172.955C132.109 173.23 132.027 173.529 132.006 173.835C131.984 174.142 132.023 174.449 132.121 174.741C132.276 175.206 132.573 175.612 132.971 175.899C133.369 176.186 133.847 176.34 134.338 176.341C134.585 176.341 134.83 176.303 135.065 176.229L162.654 167.022V182.652L149.04 187.24L149 187.257L148.847 187.317L148.779 187.35C148.733 187.371 148.687 187.393 148.644 187.418L148.565 187.466L148.453 187.536L148.364 187.603L148.275 187.675L148.182 187.758L148.132 187.804L148.105 187.835C148.076 187.864 148.051 187.893 148.024 187.924C147.997 187.955 147.973 187.984 147.948 188.015L147.892 188.092C147.863 188.129 147.836 188.168 147.811 188.206L147.776 188.268C147.749 188.313 147.722 188.359 147.699 188.407C147.69 188.424 147.681 188.442 147.674 188.46C147.649 188.51 147.627 188.56 147.608 188.612L147.585 188.674C147.569 188.722 147.552 188.771 147.537 188.821C147.523 188.871 147.523 188.879 147.517 188.906C147.511 188.933 147.496 188.993 147.488 189.037C147.48 189.073 147.474 189.109 147.471 189.146C147.471 189.184 147.471 189.219 147.457 189.254C147.442 189.289 147.457 189.339 147.457 189.381C147.457 189.422 147.457 189.447 147.457 189.48V189.604C147.457 189.64 147.457 189.675 147.457 189.71C147.457 189.745 147.457 189.783 147.473 189.818C147.49 189.853 147.486 189.901 147.494 189.942C147.502 189.984 147.508 190.002 147.517 190.031C147.525 190.06 147.542 190.126 147.556 190.174C147.555 190.184 147.555 190.195 147.556 190.205L147.581 190.269C147.593 190.301 147.604 190.334 147.618 190.365C147.633 190.396 147.656 190.45 147.676 190.491C147.697 190.533 147.695 190.533 147.705 190.551C147.738 190.613 147.774 190.674 147.811 190.732L147.84 190.773C147.872 190.821 147.907 190.867 147.944 190.912L147.975 190.953C148.016 191.003 148.06 191.051 148.105 191.096L148.118 191.111L148.136 191.129L148.149 191.14L163.323 206.316C163.377 206.37 163.435 206.42 163.493 206.47L163.576 206.53C163.608 206.556 163.642 206.581 163.677 206.604L163.777 206.666C163.81 206.685 163.841 206.706 163.874 206.722C163.907 206.739 163.943 206.758 163.978 206.774L164.081 206.822L164.185 206.859L164.297 206.898L164.401 206.925L164.519 206.954L164.641 206.973L164.744 206.988C164.821 206.996 164.898 207 164.974 207C165.052 207 165.129 206.996 165.207 206.988L165.31 206.973L165.432 206.954L165.551 206.925L165.654 206.898L165.766 206.859L165.87 206.822L165.973 206.774C166.008 206.758 166.044 206.741 166.077 206.722C166.11 206.704 166.141 206.685 166.174 206.666L166.274 206.604C166.309 206.581 166.343 206.556 166.375 206.53L166.458 206.47C166.516 206.42 166.574 206.37 166.628 206.316C166.68 206.262 166.732 206.206 166.779 206.146C166.802 206.119 166.821 206.092 166.841 206.063C166.862 206.034 166.893 205.997 166.916 205.962C166.939 205.927 166.958 205.895 166.978 205.862C166.999 205.829 167.018 205.798 167.034 205.767C167.051 205.736 167.067 205.697 167.084 205.661C167.1 205.626 167.117 205.593 167.132 205.56C167.146 205.527 167.159 205.489 167.171 205.456C167.183 205.423 167.198 205.382 167.21 205.342C167.223 205.303 167.227 205.274 167.237 205.239C167.248 205.203 167.258 205.16 167.264 205.121C167.272 205.081 167.279 205.041 167.283 205C167.283 204.965 167.295 204.93 167.299 204.895C167.299 204.82 167.299 204.748 167.299 204.673V186.013L196.376 176.212C196.67 176.118 196.942 175.966 197.177 175.766C197.412 175.566 197.606 175.322 197.746 175.047C197.886 174.771 197.97 174.471 197.993 174.163C198.017 173.856 197.979 173.546 197.882 173.253ZM167.337 148.98L175.992 157.633L167.337 160.522V148.98ZM162.66 199.022L154.114 190.477L162.66 187.594V199.022Z" stroke="url(#paint2_linear_191_3001)" stroke-width="2" mask="url(#path-10-inside-1_191_3001)"/>
</g>
<g filter="url(#filter3_d_191_3001)">
<circle cx="279" cy="232" r="41" fill="#F27B50"/>
<g clip-path="url(#clip2_191_3001)">
<path d="M266 249.705V219.99H267.665L288.414 240.141V219.99H289.993V249.705H288.414V242.361L267.58 222.039V249.705H266Z" fill="white"/>
<path fill-rule="evenodd" clip-rule="evenodd" d="M278.029 212.887L280.171 210.744L278.029 208.602L275.886 210.744L278.029 212.887Z" fill="white"/>
</g>
</g>
<defs>
<filter id="filter0_f_191_3001" x="5.6748" y="14.8867" width="318.213" height="318.213" filterUnits="userSpaceOnUse" color-interpolation-filters="sRGB">
<feFlood flood-opacity="0" result="BackgroundImageFix"/>
<feBlend mode="normal" in="SourceGraphic" in2="BackgroundImageFix" result="shape"/>
<feGaussianBlur stdDeviation="12" result="effect1_foregroundBlur_191_3001"/>
</filter>
<filter id="filter1_d_191_3001" x="114" y="0" width="102" height="102" filterUnits="userSpaceOnUse" color-interpolation-filters="sRGB">
<feFlood flood-opacity="0" result="BackgroundImageFix"/>
<feColorMatrix in="SourceAlpha" type="matrix" values="0 0 0 0 0 0 0 0 0 0 0 0 0 0 0 0 0 0 127 0" result="hardAlpha"/>
<feOffset dy="2"/>
<feGaussianBlur stdDeviation="5"/>
<feComposite in2="hardAlpha" operator="out"/>
<feColorMatrix type="matrix" values="0 0 0 0 0.0352941 0 0 0 0 0.192157 0 0 0 0 0.235294 0 0 0 1 0"/>
<feBlend mode="normal" in2="BackgroundImageFix" result="effect1_dropShadow_191_3001"/>
<feBlend mode="normal" in="SourceGraphic" in2="effect1_dropShadow_191_3001" result="shape"/>
</filter>
<filter id="filter2_d_191_3001" x="0" y="183" width="102" height="102" filterUnits="userSpaceOnUse" color-interpolation-filters="sRGB">
<feFlood flood-opacity="0" result="BackgroundImageFix"/>
<feColorMatrix in="SourceAlpha" type="matrix" values="0 0 0 0 0 0 0 0 0 0 0 0 0 0 0 0 0 0 127 0" result="hardAlpha"/>
<feOffset dy="2"/>
<feGaussianBlur stdDeviation="5"/>
<feComposite in2="hardAlpha" operator="out"/>
<feColorMatrix type="matrix" values="0 0 0 0 0.0352941 0 0 0 0 0.192157 0 0 0 0 0.235294 0 0 0 1 0"/>
<feBlend mode="normal" in2="BackgroundImageFix" result="effect1_dropShadow_191_3001"/>
<feBlend mode="normal" in="SourceGraphic" in2="effect1_dropShadow_191_3001" result="shape"/>
</filter>
<filter id="filter3_d_191_3001" x="228" y="183" width="102" height="102" filterUnits="userSpaceOnUse" color-interpolation-filters="sRGB">
<feFlood flood-opacity="0" result="BackgroundImageFix"/>
<feColorMatrix in="SourceAlpha" type="matrix" values="0 0 0 0 0 0 0 0 0 0 0 0 0 0 0 0 0 0 127 0" result="hardAlpha"/>
<feOffset dy="2"/>
<feGaussianBlur stdDeviation="5"/>
<feComposite in2="hardAlpha" operator="out"/>
<feColorMatrix type="matrix" values="0 0 0 0 0.0352941 0 0 0 0 0.192157 0 0 0 0 0.235294 0 0 0 1 0"/>
<feBlend mode="normal" in2="BackgroundImageFix" result="effect1_dropShadow_191_3001"/>
<feBlend mode="normal" in="SourceGraphic" in2="effect1_dropShadow_191_3001" result="shape"/>
</filter>
<linearGradient id="paint0_linear_191_3001" x1="54.1188" y1="138.525" x2="264.094" y2="213.719" gradientUnits="userSpaceOnUse">
<stop stop-color="#257671"/>
<stop offset="0.5" stop-color="#BAB9AC" stop-opacity="0.8"/>
<stop offset="1" stop-color="#F26348"/>
</linearGradient>
<linearGradient id="paint1_linear_191_3001" x1="54.1188" y1="138.525" x2="264.094" y2="213.719" gradientUnits="userSpaceOnUse">
<stop stop-color="#257671"/>
<stop offset="0.5" stop-color="#BAB9AC" stop-opacity="0.8"/>
<stop offset="1" stop-color="#F26348"/>
</linearGradient>
<linearGradient id="paint2_linear_191_3001" x1="136.714" y1="164.934" x2="190.385" y2="184.154" gradientUnits="userSpaceOnUse">
<stop stop-color="#257671"/>
<stop offset="0.5" stop-color="#BAB9AC" stop-opacity="0.8"/>
<stop offset="1" stop-color="#F26348"/>
</linearGradient>
<clipPath id="clip0_191_3001">
<rect width="30.7363" height="33.2285" fill="white" transform="translate(151.545 33.4199)"/>
</clipPath>
<clipPath id="clip1_191_3001">
<rect width="25.3333" height="39.4667" fill="white" transform="translate(37.4668 211.266)"/>
</clipPath>
<clipPath id="clip2_191_3001">
<rect width="24" height="41.1429" fill="white" transform="translate(266 208.602)"/>
</clipPath>
</defs>
</svg>
