<?xml version="1.0" encoding="UTF-8" standalone="no"?>
<svg
   version="1.1"
   width="1080"
   height="1080"
   viewBox="0 0 1080 1080"
   xml:space="preserve"
   id="svg53"
   sodipodi:docname="Mediamodifier-Design.svg"
   inkscape:version="1.1.1 (c3084ef, 2021-09-22)"
   xmlns:inkscape="http://www.inkscape.org/namespaces/inkscape"
   xmlns:sodipodi="http://sodipodi.sourceforge.net/DTD/sodipodi-0.dtd"
   xmlns="http://www.w3.org/2000/svg"
   xmlns:svg="http://www.w3.org/2000/svg"><sodipodi:namedview
   id="namedview55"
   pagecolor="#ffffff"
   bordercolor="#666666"
   borderopacity="1.0"
   inkscape:pageshadow="2"
   inkscape:pageopacity="0.0"
   inkscape:pagecheckerboard="0"
   showgrid="false"
   inkscape:zoom="0.71111111"
   inkscape:cx="636.32812"
   inkscape:cy="483.75"
   inkscape:window-width="1920"
   inkscape:window-height="1052"
   inkscape:window-x="0"
   inkscape:window-y="28"
   inkscape:window-maximized="0"
   inkscape:current-layer="svg53" />
<desc
   id="desc9">Created with Fabric.js 5.2.4</desc>
<defs
   id="defs17">
    <clipPath
   id="clip0_192_3078">
      <rect
   width="200"
   height="100"
   transform="translate(-100 19)"
   id="rect11" />
    </clipPath>
    <clipPath
   id="clip0_192_3079">
      <rect
   width="200"
   height="100"
   transform="translate(-100 -115)"
   id="rect14" />
    </clipPath>
</defs>
<rect
   x="0"
   y="0"
   width="100%"
   height="100%"
   fill="transparent"
   id="rect19" />
<g
   transform="matrix(1 0 0 1 540 540)"
   id="78d7b9a1-1f48-4853-952c-83d699d42c76">
<rect
   style="stroke: none; stroke-width: 1; stroke-dasharray: none; stroke-linecap: butt; stroke-dashoffset: 0; stroke-linejoin: miter; stroke-miterlimit: 4; fill: rgb(255,255,255); fill-rule: nonzero; opacity: 1; visibility: hidden;"
   vector-effect="non-scaling-stroke"
   x="-540"
   y="-540"
   rx="0"
   ry="0"
   width="1080"
   height="1080"
   id="rect21" />
</g>
<g
   transform="matrix(1 0 0 1 540 540)"
   id="8caaeff0-6ae2-489b-babc-e8f05ddc0bb3">
</g>
<g
   transform="matrix(3.77 0 0 3.77 184.57 556.11)"
   id="g27">
<path
   style="stroke: rgb(0,0,0); stroke-width: 0; stroke-dasharray: none; stroke-linecap: butt; stroke-dashoffset: 0; stroke-linejoin: miter; stroke-miterlimit: 4; fill: rgb(20,44,52); fill-rule: nonzero; opacity: 1;"
   vector-effect="non-scaling-stroke"
   transform=" translate(-50, -50)"
   d="M 50 92.875 C 26.358 92.875 7.125 73.642 7.125 50 C 7.125 26.358000000000004 26.358 7.125 50 7.125 C 73.642 7.125 92.875 26.358 92.875 50 C 92.875 73.642 73.642 92.875 50 92.875 z M 50 9.125 C 27.461 9.125 9.125 27.461 9.125 50 C 9.125 72.538 27.461 90.875 50 90.875 C 72.538 90.875 90.875 72.538 90.875 50 C 90.875 27.461 72.538 9.125 50 9.125 z"
   stroke-linecap="round"
   id="path25" />
</g>
<g
   clip-path="url(#clip0_192_3078)"
   transform="matrix(9.07 0 0 9.07 539.98 539.98)"
   id="g31">
<path
   style="stroke: rgb(0,0,0); stroke-width: 0; stroke-dasharray: none; stroke-linecap: butt; stroke-dashoffset: 0; stroke-linejoin: miter; stroke-miterlimit: 4; fill: rgb(20,44,52); fill-rule: nonzero; opacity: 1;"
   vector-effect="non-scaling-stroke"
   transform=" translate(-50, -50)"
   d="M 50 92.875 C 26.358 92.875 7.125 73.642 7.125 50 C 7.125 26.358000000000004 26.358 7.125 50 7.125 C 73.642 7.125 92.875 26.358 92.875 50 C 92.875 73.642 73.642 92.875 50 92.875 z M 50 9.125 C 27.461 9.125 9.125 27.461 9.125 50 C 9.125 72.538 27.461 90.875 50 90.875 C 72.538 90.875 90.875 72.538 90.875 50 C 90.875 27.461 72.538 9.125 50 9.125 z"
   stroke-linecap="round"
   id="path29" />
</g>
<g
   clip-path="url(#clip0_192_3079)"
   transform="matrix(9.07,0,0,9.0069395,539.98,537.27628)"
   id="g35">
<path
   style="opacity:1;fill:#142c34;fill-rule:nonzero;stroke:#000000;stroke-width:0;stroke-linecap:butt;stroke-linejoin:miter;stroke-miterlimit:4;stroke-dasharray:none;stroke-dashoffset:0"
   vector-effect="non-scaling-stroke"
   transform="translate(-50,-50)"
   d="M 50,92.875 C 26.358,92.875 7.125,73.642 7.125,50 7.125,26.358 26.358,7.125 50,7.125 73.642,7.125 92.875,26.358 92.875,50 92.875,73.642 73.642,92.875 50,92.875 Z M 50,9.125 C 27.461,9.125 9.125,27.461 9.125,50 9.125,72.538 27.461,90.875 50,90.875 72.538,90.875 90.875,72.538 90.875,50 90.875,27.461 72.538,9.125 50,9.125 Z"
   stroke-linecap="round"
   id="path33" />
</g>
<g
   transform="matrix(3.63 0 0 3.63 540 540)"
   id="g39">
<path
   style="stroke: rgb(0,0,0); stroke-width: 0; stroke-dasharray: none; stroke-linecap: butt; stroke-dashoffset: 0; stroke-linejoin: miter; stroke-miterlimit: 4; fill: rgb(20,44,52); fill-rule: nonzero; opacity: 1;"
   vector-effect="non-scaling-stroke"
   transform=" translate(-40.01, -40)"
   d="M 54.7642 12.6959 L 64.8927 22.8194 L 51.8158 35.8994 L 56.9445 41.0282 L 80.012 41.0282 L 80.012 38.6578 L 69.6234 38.6578 L 71.1237 37.1576 L 62.5094 28.5473 L 68.2382 22.8194 L 55.7464 10.3235 L 41.1912 10.3235 L 41.1912 0 L 38.8238 0 L 38.8238 10.3235 L 24.2656 10.3235 L 11.7698 22.8194 L 17.5026 28.5473 L 8.89233 37.1576 L 10.3926 38.6578 L 0 38.6578 L 0 41.0252 L 23.0675 41.0252 L 28.3232 35.7674 L 27.2981 34.9992 L 15.1193 22.8194 L 25.2478 12.6959 L 33.355 12.6959 L 22.1423 23.9076 L 23.1675 24.6757 L 38.8238 40.3321 L 38.8238 53.05 L 33.616 47.8422 L 33.616 37.0796 L 14.7022 55.9894 L 16.3765 57.6636 L 22.8874 51.1527 L 38.8238 67.0931 L 38.8238 80 L 41.1912 80 L 41.1912 67.0931 L 57.1296 51.1547 L 63.6385 57.6636 L 65.3098 55.9894 L 57.9657 48.6413 L 46.396 37.0796 L 46.396 47.8452 L 41.1952 53.046 L 41.1952 40.331 L 57.8777 23.6505 L 56.8525 22.8814 L 46.659 12.6959 L 54.7602 12.6959 L 54.7642 12.6959 Z M 67.7742 37.1576 L 66.2739 38.6578 L 57.9257 38.6578 L 55.1643 35.8994 L 60.8391 30.2245 L 67.7742 37.1576 Z M 22.0863 38.6578 L 13.7371 38.6578 L 12.2368 37.1576 L 19.1719 30.2215 L 24.8477 35.8994 L 22.0863 38.6578 Z M 38.8238 12.6959 L 38.8238 28.1592 L 33.616 22.9524 L 33.616 15.7794 L 36.7055 12.6959 L 38.8238 12.6959 Z M 24.5577 49.4784 L 31.2477 42.7884 L 31.2477 48.7283 L 31.5347 49.1104 L 38.8238 56.4025 L 38.8238 63.7436 L 24.5577 49.4784 Z M 48.4183 49.1724 L 48.7643 48.8223 L 48.7643 42.7894 L 55.4553 49.4804 L 41.1912 63.7436 L 41.1912 56.4025 L 48.4183 49.1724 Z M 40.006 38.1667 L 25.6188 23.7786 L 31.2487 18.1477 L 31.2487 23.9336 L 40.006 32.6929 L 48.7623 23.9356 L 48.7623 18.1457 L 54.3962 23.7796 L 40.006 38.1667 Z M 46.394 15.7774 L 46.394 22.9544 L 41.1932 28.1552 L 41.1932 12.6959 L 43.3065 12.6959 L 46.394 15.7774 Z"
   stroke-linecap="round"
   id="path37" />
</g>
<g
   transform="matrix(3.77 0 0 3.77 912.95 559.67)"
   id="g43">
<path
   style="stroke: rgb(0,0,0); stroke-width: 0; stroke-dasharray: none; stroke-linecap: butt; stroke-dashoffset: 0; stroke-linejoin: miter; stroke-miterlimit: 4; fill: rgb(20,44,52); fill-rule: nonzero; opacity: 1;"
   vector-effect="non-scaling-stroke"
   transform=" translate(-50, -50)"
   d="M 50 92.875 C 26.358 92.875 7.125 73.642 7.125 50 C 7.125 26.358000000000004 26.358 7.125 50 7.125 C 73.642 7.125 92.875 26.358 92.875 50 C 92.875 73.642 73.642 92.875 50 92.875 z M 50 9.125 C 27.461 9.125 9.125 27.461 9.125 50 C 9.125 72.538 27.461 90.875 50 90.875 C 72.538 90.875 90.875 72.538 90.875 50 C 90.875 27.461 72.538 9.125 50 9.125 z"
   stroke-linecap="round"
   id="path41" />
</g>
<g
   transform="matrix(1.7 0 0 1.7 918.07 561.29)"
   id="g47">
<path
   style="stroke: rgb(0,0,0); stroke-width: 0; stroke-dasharray: none; stroke-linecap: butt; stroke-dashoffset: 0; stroke-linejoin: miter; stroke-miterlimit: 4; fill: rgb(20,44,52); fill-rule: nonzero; opacity: 1;"
   vector-effect="non-scaling-stroke"
   transform=" translate(-54.28, -50)"
   d="M 56.9114 4.27588 C 58.1521 1.91929 55.3016 -0.934055 52.9664 0.295918 C 51.0668 1.06052 50.5847 3.83811 52.0632 5.2434 C 53.4588 6.70768 56.1909 6.19686 56.9114 4.27588 Z M 30.9235 5.31536 C 31.0681 3.75368 29.2724 2.44092 27.8538 3.03074 C 25.8792 3.56212 25.6601 6.70334 27.5758 7.45279 C 29.0217 8.25852 31.074 7.01069 30.9235 5.31536 Z M 79.299 7.50002 C 77.0823 7.22946 76.7314 3.70892 78.8656 3.00005 C 80.521 2.18458 82.0397 3.71379 82.2819 5.29873 C 81.9347 6.65208 80.813 7.89125 79.299 7.50002 Z M 38.9529 17.3525 C 39.3177 14.5701 35.9336 12.3136 33.562 13.8288 C 31.341 14.9759 31.0356 18.3985 33.051 19.8904 C 35.1354 21.7898 38.8297 20.1621 38.9529 17.3525 Z M 69.7707 15.4359 C 70.8287 12.6816 75.116 12.5982 76.3203 15.2795 C 77.5106 17.3661 76.0465 19.9499 73.9257 20.6593 C 71.1164 21.1891 68.448 18.1215 69.7707 15.4359 Z M 54.285 16.2109 C 52.0575 16.3722 49.9226 18.1363 49.9457 20.5037 C 49.8187 22.4382 51.1869 24.0183 52.8117 24.824 C 52.9753 24.8339 53.141 24.8472 53.3078 24.8606 C 54.2255 24.9342 55.1787 25.0106 56.0046 24.5431 C 58.1389 23.5897 59.1878 20.7293 58.0066 18.6519 C 57.3728 17.146 55.7625 16.5102 54.285 16.2109 Z M 12.5906 23.9525 C 14.757 22.6073 17.6799 25.0624 16.8597 27.4395 C 16.4081 29.4958 13.6717 30.3324 12.1074 29.0196 C 10.4376 27.7896 10.7022 24.8324 12.5906 23.9525 Z M 97.4557 26.5054 C 97.6748 24.1612 94.6416 22.5076 92.8035 23.9491 C 90.9173 25.119 91.1225 28.2419 93.1319 29.1542 C 94.9566 30.2548 97.5789 28.6428 97.4557 26.5054 Z M 60.4496 28.205 C 63.4828 27.1043 67.0854 28.4214 68.8142 31.153 C 71.0947 34.4923 69.8813 39.5777 66.3424 41.4938 C 62.6755 43.7601 57.321 41.8391 55.9667 37.7027 C 54.4292 33.9998 56.669 29.3657 60.4496 28.205 Z M 52.1539 31.7849 C 50.5302 28.3115 46.0061 26.9668 42.6445 28.5696 C 39.0616 30.1859 37.4132 34.9538 39.2695 38.464 C 40.9248 42.0939 45.7505 43.5814 49.1711 41.6193 C 52.5873 39.8736 54.0648 35.1659 52.1539 31.7849 Z M 24.834 34.7215 C 25.0895 32.5338 27.1327 31.1101 29.1941 30.9629 C 31.4152 31.2335 33.1895 32.9759 33.4311 35.2464 C 33.2854 37.4942 31.5657 39.6912 29.2075 39.6777 C 26.6131 39.9033 24.3384 37.2962 24.834 34.7215 Z M 83.709 35.2438 C 83.8274 32.153 80.1288 29.8732 77.4653 31.4392 C 74.6056 32.8012 74.3908 37.3061 77.146 38.9056 C 79.7983 40.8266 83.8917 38.5187 83.709 35.2438 Z M 35.4031 42.9819 C 38.5182 42.1161 42.0802 43.5993 43.608 46.4916 C 45.2816 49.4029 44.5975 53.4472 41.9982 55.5825 C 38.6645 58.7145 32.5161 57.4569 30.7418 53.1826 C 28.7029 49.2643 31.1795 44.0133 35.4031 42.9819 Z M 77.3791 46.0565 C 75.7511 43.2698 72.1934 42.0907 69.1651 42.9657 C 64.9099 44.1426 62.6567 49.596 64.896 53.4548 C 66.7431 57.1853 71.9427 58.438 75.2995 56.0522 C 78.5041 53.9975 79.5316 49.2438 77.3791 46.0565 Z M 15.372 46.6034 C 18.0629 45.5753 21.0458 48.5747 19.9556 51.2695 C 19.2897 53.7246 15.8644 54.632 14.0949 52.822 C 12.0244 51.1223 12.791 47.3404 15.372 46.6034 Z M 92.1473 46.1426 C 89.8609 46.267 88.2297 48.2616 88.3074 50.5138 C 88.7541 51.5641 89.2968 52.6604 90.3548 53.2037 C 92.6123 54.4613 95.8052 52.642 95.6364 49.9656 C 95.7822 47.9391 93.9902 46.4375 92.1473 46.1426 Z M 2.14139 47.9247 C 3.76032 47.211 5.76281 48.6282 5.39317 50.4442 C 5.30638 52.5005 2.30104 53.291 1.19693 51.573 C 0.2214 50.3798 0.805327 48.54 2.14139 47.9247 Z M 107.64 48.9963 C 107.189 47.651 105.36 47.0617 104.22 47.8815 C 102.323 48.9037 103.066 52.4416 105.364 52.23 C 107.002 52.4784 108.406 50.4654 107.64 48.9963 Z M 44.1988 57.7534 C 48.4588 56.6344 53.038 60.2226 53.0648 64.6533 C 53.3429 69.1305 48.8327 73.1007 44.472 72.0666 C 41.1013 71.5185 38.4565 68.2387 38.5658 64.7983 C 38.5567 61.5077 41.015 58.4493 44.1988 57.7534 Z M 70.0421 64.7105 C 70.1107 60.1775 65.3948 56.5249 61.0711 57.7457 C 58.5077 58.3891 56.337 60.5233 55.7707 63.1477 C 54.6489 67.086 57.6136 71.5449 61.6314 72.0697 C 65.901 72.9415 70.2703 69.1049 70.0421 64.7105 Z M 28.547 60.4706 C 31.539 59.9549 34.344 63.3267 33.1306 66.1963 C 32.2456 69.2541 27.8399 70.0837 25.892 67.5859 C 23.6072 65.1871 25.3129 60.8018 28.547 60.4706 Z M 83.7592 64.7336 C 83.9644 61.8089 80.6896 59.4777 78.0217 60.6065 C 74.7973 61.6417 74.2594 66.607 77.2144 68.2942 C 79.8233 70.1735 83.8663 67.9533 83.7592 64.7336 Z M 91.85 74.6154 C 90.8054 72.6484 92.7029 70.0413 94.865 70.4054 C 95.8817 70.3881 96.6097 71.1515 97.2679 71.8419 L 97.2701 71.8442 L 97.3829 71.9623 C 97.39 72.0207 97.3973 72.0796 97.4047 72.1391 L 97.407 72.1575 L 97.4075 72.1617 C 97.5473 73.2833 97.7075 74.5692 96.8038 75.4168 C 95.5031 77.0797 92.5566 76.6051 91.85 74.6154 Z M 17.055 74.0092 C 17.5092 71.6228 14.6014 69.5963 12.5807 70.9551 C 10.6559 71.9459 10.5873 75.0411 12.4478 76.1282 C 14.1814 77.3257 16.8134 76.1196 17.055 74.0092 Z M 52.5073 75.3715 C 55.1527 74.1924 58.5228 76.5186 58.2721 79.4618 C 58.4682 82.714 54.2998 84.9661 51.7134 83.0132 C 48.8404 81.3363 49.3193 76.4028 52.5073 75.3715 Z M 39.0839 83.1456 C 39.2891 80.5985 36.2655 78.5303 34.0123 79.7278 C 32.425 80.3268 31.7779 82.0958 31.75 83.684 C 32.2927 85.1412 33.3962 86.6737 35.0886 86.7105 C 37.1318 87.0195 39.1525 85.237 39.0839 83.1456 Z M 71.4654 79.7669 C 73.7823 78.3205 77.0753 80.3979 76.8562 83.1219 C 76.9157 85.9687 73.1941 87.7923 71.0368 85.9222 C 68.948 84.4563 69.203 80.9325 71.4654 79.7669 Z M 79.8381 92.1992 C 78.1646 92.5585 76.9512 94.4562 77.9819 96.0314 C 79.0399 97.8604 82.1277 97.2062 82.3238 95.0737 C 82.6067 93.4979 81.1838 92.4757 79.8381 92.1992 Z M 26.2812 94.6622 C 26.6916 93.4138 27.6859 92.173 29.1409 92.4977 C 31.2618 92.6498 31.8912 95.8786 30.035 96.8738 C 28.3657 98.0107 26.4291 96.4538 26.2812 94.6622 Z M 55.5516 94.3322 C 53.9916 93.3511 51.6248 94.2494 51.2188 96.0963 C 50.4768 97.962 52.2586 100.217 54.2337 99.9837 C 55.2966 100.011 56.1173 99.2467 56.7559 98.4821 C 56.8802 97.9664 57.0066 97.4501 57.148 96.9345 L 57.1393 96.9017 C 56.8767 95.9186 56.571 94.7742 55.5516 94.3322 Z"
   stroke-linecap="round"
   id="path45" />
</g>
<g
   transform="matrix(2.06 0 0 2.06 171.11 560.84)"
   id="g51">
<path
   style="stroke: rgb(0,0,0); stroke-width: 0; stroke-dasharray: none; stroke-linecap: butt; stroke-dashoffset: 0; stroke-linejoin: miter; stroke-miterlimit: 4; fill: rgb(20,44,52); fill-rule: nonzero; opacity: 1;"
   vector-effect="non-scaling-stroke"
   transform=" translate(-50, -50)"
   d="M 99.8167 48.8615 C 99.5164 47.9708 98.8747 47.2358 98.0327 46.8183 C 97.1906 46.4008 96.2173 46.3349 95.3266 46.635 L 53.5456 60.7218 L 53.5456 37.0432 L 74.3341 30.1058 L 74.4181 30.0738 C 74.4861 30.0478 74.5521 30.0238 74.6181 29.9958 L 74.7541 29.9318 C 74.8121 29.9038 74.8701 29.8758 74.9261 29.8438 C 74.9821 29.8118 75.0281 29.7838 75.0781 29.7538 L 75.2141 29.6658 C 75.2721 29.6257 75.3281 29.5837 75.3821 29.5417 C 75.4361 29.4997 75.4541 29.4877 75.4882 29.4577 C 75.5221 29.4277 75.6042 29.3557 75.6602 29.3017 L 75.7182 29.2497 C 75.7302 29.2397 75.7382 29.2277 75.7482 29.2177 C 75.8002 29.1643 75.8502 29.1083 75.8982 29.0496 C 75.9282 29.0156 75.9602 28.9816 75.9882 28.9456 L 76.1002 28.7936 C 76.1322 28.7476 76.1662 28.7016 76.1962 28.6536 C 76.2262 28.6055 76.2482 28.5675 76.2722 28.5235 C 76.2962 28.4795 76.3402 28.4095 76.3702 28.3495 C 76.4002 28.2895 76.4062 28.2715 76.4262 28.2315 C 76.4462 28.1915 76.4842 28.1034 76.5102 28.0314 C 76.5362 27.9594 76.5422 27.9414 76.5562 27.8974 C 76.5702 27.8534 76.6002 27.7754 76.6182 27.7134 C 76.6362 27.6514 76.6462 27.5993 76.6602 27.5413 C 76.6742 27.4833 76.6862 27.4393 76.6962 27.3873 C 76.7062 27.3353 76.7162 27.2473 76.7262 27.1773 C 76.7262 27.1373 76.7382 27.0953 76.7422 27.0532 C 76.7422 26.9792 76.7422 26.9052 76.7522 26.8292 C 76.7522 26.7912 76.7522 26.7512 76.7522 26.7132 C 76.7522 26.6432 76.7522 26.5731 76.7522 26.5131 C 76.7522 26.4531 76.7522 26.4191 76.7422 26.3731 C 76.7322 26.3271 76.7262 26.2551 76.7162 26.1971 C 76.7062 26.1391 76.6982 26.0771 76.6862 26.019 C 76.6742 25.961 76.6642 25.925 76.6522 25.879 C 76.6402 25.833 76.6142 25.737 76.5922 25.667 C 76.5891 25.6527 76.5851 25.6387 76.5802 25.625 C 76.5802 25.599 76.5602 25.575 76.5502 25.549 C 76.5262 25.4769 76.4982 25.4049 76.4682 25.3349 C 76.4382 25.2649 76.4302 25.2529 76.4102 25.2109 C 76.3902 25.1689 76.3502 25.0889 76.3162 25.0268 C 76.2822 24.9648 76.2622 24.9328 76.2322 24.8868 C 76.2022 24.8408 76.1702 24.7868 76.1362 24.7388 C 76.1022 24.6908 76.0622 24.6328 76.0222 24.5828 C 75.9822 24.5328 75.9622 24.5047 75.9302 24.4667 C 75.8982 24.4287 75.8342 24.3567 75.7842 24.3047 C 75.7642 24.2847 75.7462 24.2607 75.7242 24.2387 L 52.5236 1.0342 C 52.4416 0.952183 52.3576 0.876169 52.2676 0.802154 C 52.2256 0.768148 52.1816 0.738142 52.1396 0.706136 C 52.0976 0.674129 52.0416 0.632121 51.9896 0.596114 C 51.9376 0.560107 51.8856 0.532102 51.8336 0.502096 C 51.7816 0.47209 51.7396 0.444085 51.6916 0.41808 C 51.6436 0.392075 51.5836 0.36607 51.5296 0.340065 L 51.3776 0.270051 C 51.3256 0.248047 51.2696 0.230043 51.2156 0.21004 L 51.0515 0.152028 L 50.8855 0.11002 C 50.8275 0.0960174 50.7735 0.0800143 50.7155 0.068012 L 50.5155 0.0380062 C 50.4655 0.0380062 50.4175 0.0220031 50.3675 0.0180023 C 50.1348 -0.00600077 49.9002 -0.00600077 49.6675 0.0180023 C 49.6175 0.0180023 49.5695 0.032005 49.5195 0.0380062 C 49.4695 0.0440074 49.3895 0.0560097 49.3195 0.068012 C 49.2495 0.0800143 49.2055 0.0960174 49.1475 0.11002 C 49.0895 0.124023 49.0375 0.136025 48.9835 0.152028 L 48.8175 0.21004 L 48.6555 0.270051 C 48.6035 0.292055 48.5555 0.31606 48.5055 0.340065 C 48.4555 0.364069 48.3955 0.390074 48.3415 0.41808 C 48.2875 0.446085 48.2475 0.474091 48.2015 0.502096 C 48.1555 0.530102 48.0955 0.562108 48.0435 0.596114 L 47.8935 0.706136 C 47.8515 0.738142 47.8075 0.768148 47.7655 0.802154 C 47.6775 0.876169 47.5915 0.952183 47.5095 1.0342 C 47.4275 1.11622 47.3515 1.20223 47.2775 1.29225 C 47.2435 1.33226 47.2155 1.37427 47.1834 1.41627 C 47.1514 1.45828 47.1074 1.51629 47.0714 1.5703 C 47.0354 1.62431 47.0094 1.67232 46.9774 1.72233 C 46.9454 1.77234 46.9194 1.81835 46.8934 1.86836 C 46.8674 1.91837 46.8414 1.97238 46.8154 2.02639 C 46.7894 2.0804 46.7654 2.12841 46.7434 2.18242 C 46.7214 2.23643 46.7054 2.28644 46.6874 2.33845 C 46.6694 2.39046 46.6454 2.45047 46.6274 2.50849 C 46.6094 2.5665 46.5994 2.61451 46.5874 2.66652 C 46.5754 2.71853 46.5554 2.78454 46.5434 2.84655 C 46.5314 2.90856 46.5234 2.96657 46.5154 3.02659 C 46.5074 3.0866 46.4974 3.13461 46.4914 3.18862 C 46.4814 3.30064 46.4754 3.41266 46.4754 3.52468 C 46.4754 3.52468 46.4754 3.52468 46.4754 3.53668 L 46.4754 31.9422 L 2.42234 46.631 C 1.53066 46.9287 0.793718 47.5684 0.373627 48.4095 C -0.0464653 49.2505 -0.115292 50.2241 0.182289 51.1159 C 0.479869 52.0077 1.11948 52.7448 1.96041 53.165 C 2.80135 53.5851 3.77472 53.654 4.6664 53.3563 L 46.4674 39.4076 L 46.4674 63.1122 L 25.8469 70.0636 L 25.7929 70.0856 C 25.7109 70.1136 25.6309 70.1456 25.5509 70.1796 L 25.4529 70.2256 C 25.3829 70.2596 25.3129 70.2956 25.2529 70.3336 L 25.1369 70.4016 C 25.0789 70.4376 25.0229 70.4737 24.9669 70.5137 L 24.8329 70.6117 L 24.6949 70.7217 C 24.6469 70.7617 24.6009 70.8037 24.5569 70.8477 C 24.5309 70.8717 24.5049 70.8917 24.4809 70.9157 C 24.4569 70.9398 24.4529 70.9477 24.4389 70.9638 C 24.4249 70.9798 24.3569 71.0518 24.3169 71.0978 C 24.2769 71.1438 24.2369 71.1878 24.2009 71.2358 C 24.1649 71.2838 24.1429 71.3118 24.1149 71.3518 C 24.0869 71.3918 24.0309 71.4678 23.9949 71.5279 C 23.9589 71.5879 23.9589 71.5879 23.9409 71.6179 C 23.8989 71.6879 23.8589 71.7579 23.8229 71.8299 C 23.8089 71.8559 23.7989 71.8839 23.7849 71.9099 C 23.7489 71.9859 23.7149 72.062 23.6849 72.142 C 23.6729 72.172 23.6629 72.202 23.6529 72.232 C 23.6249 72.308 23.5989 72.382 23.5769 72.46 C 23.5649 72.5021 23.5569 72.5441 23.5469 72.5861 C 23.5369 72.6281 23.5149 72.7181 23.5029 72.7861 C 23.4909 72.8541 23.4849 72.8981 23.4789 72.9541 C 23.4729 73.0101 23.4629 73.0622 23.4569 73.1182 C 23.4509 73.1742 23.4569 73.2442 23.4569 73.3182 C 23.4569 73.3922 23.4569 73.4182 23.4569 73.4682 C 23.4569 73.5182 23.4569 73.5923 23.4569 73.6563 C 23.4569 73.7203 23.4569 73.7623 23.4689 73.8163 C 23.4809 73.8703 23.4849 73.9263 23.4929 73.9803 C 23.5009 74.0343 23.5129 74.1064 23.5269 74.1704 C 23.5409 74.2344 23.5469 74.2584 23.5589 74.3044 C 23.5709 74.3504 23.5969 74.4484 23.6209 74.5184 L 23.6329 74.5665 C 23.6449 74.6005 23.6589 74.6305 23.6709 74.6625 C 23.6829 74.6945 23.7049 74.7605 23.7269 74.8085 C 23.753 74.8733 23.7823 74.9367 23.8149 74.9985 C 23.8289 75.0305 23.8429 75.0625 23.8589 75.0926 C 23.9089 75.1866 23.9629 75.2766 24.0209 75.3646 C 24.0329 75.3866 24.0489 75.4066 24.0629 75.4286 C 24.1129 75.5006 24.1649 75.5706 24.2189 75.6407 L 24.2669 75.6987 C 24.3309 75.7747 24.3969 75.8487 24.4669 75.9187 L 24.4849 75.9387 L 24.5089 75.9647 L 24.5309 75.9867 L 47.4955 98.9652 C 47.5775 99.0452 47.6635 99.1232 47.7515 99.1952 C 47.7935 99.2312 47.8375 99.2592 47.8795 99.2912 C 47.9215 99.3232 47.9775 99.3673 48.0295 99.4033 C 48.0815 99.4393 48.1335 99.4653 48.1855 99.4973 C 48.2375 99.5293 48.2795 99.5553 48.3275 99.5813 L 48.4895 99.6593 L 48.6415 99.7293 C 48.6935 99.7513 48.7475 99.7693 48.8015 99.7873 C 48.8555 99.8053 48.9115 99.8293 48.9695 99.8474 C 49.0275 99.8654 49.0775 99.8754 49.1295 99.8874 C 49.1815 99.8994 49.2455 99.9194 49.3055 99.9314 C 49.3655 99.9434 49.4295 99.9494 49.4915 99.9594 C 49.5535 99.9694 49.5955 99.9774 49.6475 99.9814 C 49.8802 100.005 50.1148 100.005 50.3475 99.9814 C 50.3995 99.9814 50.4515 99.9674 50.5035 99.9594 C 50.5555 99.9514 50.6275 99.9434 50.6895 99.9314 C 50.7515 99.9194 50.8075 99.9034 50.8655 99.8874 C 50.9235 99.8714 50.9735 99.8634 51.0255 99.8474 C 51.0775 99.8313 51.1375 99.8073 51.1936 99.7873 C 51.2495 99.7673 51.3016 99.7513 51.3536 99.7293 L 51.5056 99.6593 C 51.5596 99.6333 51.6156 99.6093 51.6676 99.5813 C 51.7196 99.5533 51.7616 99.5253 51.8096 99.4973 C 51.8576 99.4693 51.9156 99.4373 51.9656 99.4033 C 52.0156 99.3693 52.0656 99.3293 52.1156 99.2912 C 52.1656 99.2532 52.2016 99.2312 52.2436 99.1952 C 52.3336 99.1232 52.4176 99.0452 52.4996 98.9652 C 52.5816 98.8835 52.6591 98.7974 52.7316 98.7071 C 52.7656 98.6671 52.7936 98.6231 52.8256 98.5831 C 52.8576 98.5431 52.9036 98.4811 52.9376 98.4291 C 52.9716 98.3771 53.0016 98.3271 53.0316 98.275 C 53.0616 98.223 53.0896 98.181 53.1176 98.131 C 53.1456 98.081 53.1676 98.025 53.1936 97.973 C 53.2196 97.921 53.2436 97.871 53.2656 97.817 C 53.2876 97.7629 53.3036 97.7129 53.3236 97.6609 C 53.3436 97.6089 53.3656 97.5469 53.3816 97.4889 C 53.3976 97.4309 53.4096 97.3849 53.4236 97.3309 C 53.4376 97.2769 53.4536 97.2128 53.4656 97.1528 C 53.4776 97.0928 53.4856 97.0328 53.4936 96.9708 C 53.5016 96.9088 53.5116 96.8648 53.5176 96.8108 C 53.5276 96.6987 53.5336 96.5867 53.5336 96.4747 C 53.5336 96.4747 53.5336 96.4647 53.5336 96.4607 L 53.5336 68.1972 L 97.5787 53.3483 C 98.4702 53.0499 99.2067 52.4097 99.6264 51.5683 C 100.046 50.7269 100.115 49.7533 99.8167 48.8615 Z M 53.5456 12.0843 L 66.6559 25.1889 L 53.5456 29.5637 L 53.5456 12.0843 Z M 46.4574 87.899 L 33.5131 74.9525 L 46.4574 70.5977 L 46.4574 87.899 Z"
   stroke-linecap="round"
   id="path49" />
</g>
</svg>
